# xmcd
#
# Track frame offsets: 
#        150
#        18182
#        28381
#        50331
#        58138
#        73861
#        97637
#        113768
#        130033
#        146430
#        160395
#        171222
#
# Disc length: 2434 seconds
#
# Revision: 0
# Processed by: cddbd v1.5.1PL0 Copyright (c) Steve Scherf et al.
# Submitted via: ExactAudioCopy v0.95a5
#
DISCID=9f09800c
DTITLE=Willie Nelson - On the Road Again
DYEAR=2002
DGENRE=Country
TTITLE0=The Red Headed Stanger
TTITLE1=On The Road Again
TTITLE2=City Of New Orleans
TTITLE3=If You've Got The Money
TTITLE4=Whiskey River
TTITLE5=Till I Gain Control Again
TTITLE6=You Were Always On My Mind
TTITLE7=Stardust
TTITLE8=Georgia On My Mind
TTITLE9=Blue Eyes Cryin' In The Rain
TTITLE10=Go Away
TTITLE11=I'll Stay Around
EXTD=
EXTT0=
EXTT1=
EXTT2=
EXTT3=
EXTT4=
EXTT5=
EXTT6=
EXTT7=
EXTT8=
EXTT9=
EXTT10=
EXTT11=
PLAYORDER=
